<mxfile host="app.diagrams.net" modified="2023-08-02T06:08:51.877Z" agent="Mozilla/5.0 (Macintosh; Intel Mac OS X 10_15_7) AppleWebKit/537.36 (KHTML, like Gecko) Chrome/114.0.0.0 Safari/537.36" version="21.6.6" etag="QmQ-HWGQqWWBqzWY7guE" type="github">
  <diagram name="Page-1" id="R0FIyfisDtVrJZoIkp6r">
    <mxGraphModel>
      <root>
        <mxCell id="0" />
        <mxCell id="1" parent="0" />
      </root>
    </mxGraphModel>
  </diagram>
</mxfile>
